<svg width="20" height="20" viewBox="0 0 20 20" fill="none" xmlns="http://www.w3.org/2000/svg">
<path d="M20 10C20 15.5228 15.5228 20 10 20C4.47715 20 0 15.5228 0 10C0 4.47715 4.47715 0 10 0C15.5228 0 20 4.47715 20 10Z" fill="#393939"/>
<path d="M12.2982 13.3587C12.5911 13.6516 13.0659 13.6516 13.3588 13.3587C13.6517 13.0658 13.6517 12.5909 13.3588 12.298L11.0608 9.99999L13.3588 7.70197C13.6517 7.40908 13.6517 6.9342 13.3588 6.64131C13.0659 6.34842 12.591 6.34842 12.2982 6.64131L10.0001 8.93933L7.70198 6.64118C7.40908 6.34829 6.93421 6.34829 6.64132 6.64118C6.34842 6.93407 6.34842 7.40895 6.64132 7.70184L8.93947 9.99999L6.6413 12.2982C6.34841 12.5911 6.34841 13.0659 6.6413 13.3588C6.93419 13.6517 7.40907 13.6517 7.70196 13.3588L10.0001 11.0607L12.2982 13.3587Z" fill="white"/>
</svg>
