<svg xmlns="http://www.w3.org/2000/svg">
  <symbol
    id="cross"
    viewBox="0 0 8 8"
  >
    <path
      d="M5.87654 6.93718C6.16943 7.23008 6.64431 7.23008 6.9372 6.93718C7.23009 6.64429 7.23009 6.16942 6.9372 5.87652L4.63916 3.57849L6.93718 1.28046C7.23008 0.987568 7.23008 0.512695 6.93718 0.219801C6.64429 -0.0730918 6.16942 -0.0730922 5.87652 0.219801L3.5785 2.51783L1.28035 0.21967C0.987451 -0.0732236 0.512578 -0.0732232 0.219685 0.21967C-0.0732084 0.512563 -0.0732088 0.987437 0.219685 1.28033L2.51784 3.57849L0.21967 5.87666C-0.0732233 6.16955 -0.0732233 6.64442 0.21967 6.93732C0.512563 7.23021 0.987437 7.23021 1.28033 6.93732L3.5785 4.63915L5.87654 6.93718Z"
      fill="currentColor"
    />
  </symbol>

  <symbol
    id="logo"
    viewBox="0 0 137 22"
  >
    <path
      d="M119.711 3.64804H124.151V7.77604L123.983 8.35204V11.904L124.151 12.96V21.288H119.711V3.64804ZM122.687 10.488C122.927 9.01604 123.383 7.74404 124.055 6.67204C124.727 5.60004 125.575 4.76804 126.599 4.17604C127.639 3.56804 128.791 3.26404 130.055 3.26404C131.399 3.26404 132.575 3.56804 133.583 4.17604C134.607 4.78404 135.407 5.63204 135.983 6.72004C136.559 7.79204 136.847 9.04804 136.847 10.488C136.847 11.928 136.559 13.192 135.983 14.28C135.407 15.352 134.607 16.192 133.583 16.8C132.575 17.408 131.399 17.712 130.055 17.712C128.775 17.712 127.623 17.416 126.599 16.824C125.591 16.216 124.751 15.376 124.079 14.304C123.407 13.216 122.943 11.944 122.687 10.488ZM132.335 10.488C132.335 9.75204 132.183 9.10404 131.879 8.54404C131.575 7.96804 131.151 7.52004 130.607 7.20004C130.079 6.86404 129.471 6.69604 128.783 6.69604C128.079 6.69604 127.407 6.86404 126.767 7.20004C126.127 7.52004 125.567 7.96804 125.087 8.54404C124.623 9.10404 124.263 9.75204 124.007 10.488C124.263 11.224 124.623 11.88 125.087 12.456C125.567 13.016 126.127 13.464 126.767 13.8C127.407 14.12 128.079 14.28 128.783 14.28C129.471 14.28 130.079 14.12 130.607 13.8C131.151 13.464 131.575 13.016 131.879 12.456C132.183 11.88 132.335 11.224 132.335 10.488Z"
      fill="currentColor"
    />
    <path
      d="M100.328 3.64804H104.768V7.77604L104.6 8.35204V11.904L104.768 12.96V21.288H100.328V3.64804ZM103.304 10.488C103.544 9.01604 104 7.74404 104.672 6.67204C105.344 5.60004 106.192 4.76804 107.216 4.17604C108.256 3.56804 109.408 3.26404 110.672 3.26404C112.016 3.26404 113.192 3.56804 114.2 4.17604C115.224 4.78404 116.024 5.63204 116.6 6.72004C117.176 7.79204 117.464 9.04804 117.464 10.488C117.464 11.928 117.176 13.192 116.6 14.28C116.024 15.352 115.224 16.192 114.2 16.8C113.192 17.408 112.016 17.712 110.672 17.712C109.392 17.712 108.24 17.416 107.216 16.824C106.208 16.216 105.368 15.376 104.696 14.304C104.024 13.216 103.56 11.944 103.304 10.488ZM112.952 10.488C112.952 9.75204 112.8 9.10404 112.496 8.54404C112.192 7.96804 111.768 7.52004 111.224 7.20004C110.696 6.86404 110.088 6.69604 109.4 6.69604C108.696 6.69604 108.024 6.86404 107.384 7.20004C106.744 7.52004 106.184 7.96804 105.704 8.54404C105.24 9.10404 104.88 9.75204 104.624 10.488C104.88 11.224 105.24 11.88 105.704 12.456C106.184 13.016 106.744 13.464 107.384 13.8C108.024 14.12 108.696 14.28 109.4 14.28C110.088 14.28 110.696 14.12 111.224 13.8C111.768 13.464 112.192 13.016 112.496 12.456C112.8 11.88 112.952 11.224 112.952 10.488Z"
      fill="currentColor"
    />
    <path
      d="M93.1659 17.328L92.5659 12.36L93.2139 10.488L92.5659 8.64004L93.1659 3.64804H97.7979L96.9579 10.488L97.7979 17.328H93.1659ZM94.2699 10.488C94.0299 11.944 93.5739 13.216 92.9019 14.304C92.2299 15.376 91.3819 16.216 90.3579 16.824C89.3339 17.416 88.1819 17.712 86.9019 17.712C85.5579 17.712 84.3739 17.408 83.3499 16.8C82.3419 16.192 81.5499 15.352 80.9739 14.28C80.3979 13.192 80.1099 11.928 80.1099 10.488C80.1099 9.04804 80.3979 7.79204 80.9739 6.72004C81.5499 5.63204 82.3419 4.78404 83.3499 4.17604C84.3739 3.56804 85.5579 3.26404 86.9019 3.26404C88.1819 3.26404 89.3339 3.56804 90.3579 4.17604C91.3819 4.76804 92.2299 5.60004 92.9019 6.67204C93.5899 7.74404 94.0459 9.01604 94.2699 10.488ZM84.6219 10.488C84.6219 11.224 84.7739 11.88 85.0779 12.456C85.3819 13.016 85.7979 13.464 86.3259 13.8C86.8699 14.12 87.4939 14.28 88.1979 14.28C88.9019 14.28 89.5659 14.12 90.1899 13.8C90.8299 13.464 91.3899 13.016 91.8699 12.456C92.3499 11.88 92.7099 11.224 92.9499 10.488C92.7099 9.75204 92.3499 9.10404 91.8699 8.54404C91.3899 7.96804 90.8299 7.52004 90.1899 7.20004C89.5659 6.86404 88.9019 6.69604 88.1979 6.69604C87.4939 6.69604 86.8699 6.86404 86.3259 7.20004C85.7979 7.52004 85.3819 7.96804 85.0779 8.54404C84.7739 9.10404 84.6219 9.75204 84.6219 10.488Z"
      fill="currentColor"
    />
    <path
      d="M69.8582 17.712C68.1302 17.712 66.6182 17.408 65.3222 16.8C64.0262 16.192 63.0182 15.344 62.2982 14.256C61.5782 13.168 61.2182 11.912 61.2182 10.488C61.2182 9.04804 61.5782 7.79204 62.2982 6.72004C63.0182 5.63204 64.0262 4.78404 65.3222 4.17604C66.6342 3.56804 68.1462 3.26404 69.8582 3.26404C71.5862 3.26404 73.0982 3.56804 74.3942 4.17604C75.7062 4.78404 76.7222 5.63204 77.4422 6.72004C78.1622 7.79204 78.5222 9.04804 78.5222 10.488C78.5222 11.928 78.1622 13.192 77.4422 14.28C76.7222 15.352 75.7062 16.192 74.3942 16.8C73.0982 17.408 71.5862 17.712 69.8582 17.712ZM69.8582 14.352C70.7382 14.352 71.4822 14.2 72.0902 13.896C72.7142 13.576 73.1862 13.128 73.5062 12.552C73.8422 11.976 74.0102 11.288 74.0102 10.488C74.0102 9.68804 73.8422 9.00004 73.5062 8.42404C73.1862 7.84804 72.7142 7.40804 72.0902 7.10404C71.4822 6.78404 70.7382 6.62404 69.8582 6.62404C69.0102 6.62404 68.2742 6.78404 67.6502 7.10404C67.0262 7.40804 66.5462 7.84804 66.2102 8.42404C65.8742 9.00004 65.7062 9.68804 65.7062 10.488C65.7062 11.288 65.8742 11.976 66.2102 12.552C66.5462 13.128 67.0262 13.576 67.6502 13.896C68.2742 14.2 69.0102 14.352 69.8582 14.352Z"
      fill="currentColor"
    />
    <path
      d="M46.8358 6.96V5.016L49.6678 3.984L51.5878 0H54.1318V3.648H60.0358V6.96H54.1318V11.472C54.1318 12.496 54.3398 13.216 54.7558 13.632C55.1718 14.032 55.9158 14.232 56.9878 14.232C57.6758 14.232 58.2758 14.176 58.7878 14.064C59.3158 13.936 59.8118 13.768 60.2758 13.56V16.944C59.7958 17.136 59.1638 17.312 58.3798 17.472C57.6118 17.632 56.8118 17.712 55.9798 17.712C54.5238 17.712 53.3238 17.48 52.3798 17.016C51.4518 16.552 50.7638 15.904 50.3158 15.072C49.8838 14.224 49.6678 13.232 49.6678 12.096V6.96H46.8358Z"
      fill="currentColor"
    />
    <path
      d="M46.1263 12.936C46.1263 13.96 45.8223 14.832 45.2143 15.552C44.6223 16.256 43.7503 16.792 42.5983 17.16C41.4463 17.528 40.0463 17.712 38.3983 17.712C36.7183 17.712 35.2463 17.504 33.9823 17.088C32.7183 16.672 31.7343 16.088 31.0303 15.336C30.3263 14.584 29.9503 13.712 29.9023 12.72H34.4383C34.5343 13.12 34.7583 13.472 35.1103 13.776C35.4783 14.08 35.9503 14.312 36.5263 14.472C37.1023 14.616 37.7823 14.688 38.5663 14.688C39.6223 14.688 40.4223 14.576 40.9663 14.352C41.5103 14.128 41.7823 13.792 41.7823 13.344C41.7823 13.008 41.5823 12.752 41.1823 12.576C40.7983 12.4 40.1023 12.272 39.0943 12.192L36.5983 12C35.0303 11.888 33.7823 11.64 32.8543 11.256C31.9263 10.872 31.2623 10.384 30.8623 9.79204C30.4783 9.20004 30.2863 8.53604 30.2863 7.80004C30.2863 6.79204 30.5983 5.95204 31.2223 5.28004C31.8623 4.60804 32.7423 4.10404 33.8623 3.76804C34.9823 3.43204 36.2943 3.26404 37.7983 3.26404C39.3023 3.26404 40.6383 3.46404 41.8063 3.86404C42.9903 4.26404 43.9343 4.81604 44.6383 5.52004C45.3583 6.22404 45.7663 7.04804 45.8623 7.99204H41.3263C41.2623 7.67204 41.0863 7.37604 40.7983 7.10404C40.5263 6.83204 40.1263 6.61604 39.5983 6.45604C39.0863 6.28004 38.4143 6.19204 37.5823 6.19204C36.6383 6.19204 35.9183 6.29604 35.4223 6.50404C34.9263 6.71204 34.6783 7.01604 34.6783 7.41604C34.6783 7.72004 34.8303 7.96004 35.1343 8.13604C35.4383 8.31204 36.0143 8.44004 36.8623 8.52004L40.1023 8.76004C41.6383 8.88804 42.8383 9.13604 43.7023 9.50404C44.5823 9.85604 45.2063 10.32 45.5743 10.896C45.9423 11.472 46.1263 12.152 46.1263 12.936Z"
      fill="currentColor"
    />
    <path
      d="M21.1054 17.712C19.4734 17.712 18.0094 17.408 16.7134 16.8C15.4334 16.192 14.4254 15.344 13.6894 14.256C12.9534 13.168 12.5854 11.896 12.5854 10.44C12.5854 9.01604 12.9374 7.76804 13.6414 6.69604C14.3454 5.62404 15.3134 4.78404 16.5454 4.17604C17.7934 3.56804 19.2014 3.26404 20.7694 3.26404C22.3694 3.26404 23.7454 3.61604 24.8974 4.32004C26.0494 5.02404 26.9374 6.01604 27.5614 7.29604C28.1854 8.57604 28.4974 10.08 28.4974 11.808H16.1614V9.00004H26.0494L24.4414 10.008C24.3934 9.25604 24.2094 8.62404 23.8894 8.11204C23.5854 7.58404 23.1774 7.18404 22.6654 6.91204C22.1534 6.62404 21.5454 6.48004 20.8414 6.48004C20.0734 6.48004 19.4094 6.63204 18.8494 6.93604C18.2894 7.24004 17.8494 7.66404 17.5294 8.20804C17.2254 8.75204 17.0734 9.38404 17.0734 10.104C17.0734 11.016 17.2734 11.792 17.6734 12.432C18.0894 13.072 18.6814 13.56 19.4494 13.896C20.2334 14.232 21.1854 14.4 22.3054 14.4C23.3294 14.4 24.3534 14.264 25.3774 13.992C26.4014 13.704 27.3214 13.304 28.1374 12.792V15.696C27.2094 16.336 26.1454 16.832 24.9454 17.184C23.7614 17.536 22.4814 17.712 21.1054 17.712Z"
      fill="currentColor"
    />
    <path
      d="M0 3.64804H4.512L5.328 8.56804V17.328H0.864V8.20804L0 3.64804ZM11.856 3.45604V7.29604C11.424 7.20004 10.992 7.12804 10.56 7.08004C10.144 7.03204 9.76 7.00804 9.408 7.00804C8.64 7.00804 7.944 7.16804 7.32 7.48804C6.712 7.79204 6.224 8.28004 5.856 8.95204C5.504 9.62404 5.328 10.496 5.328 11.568L4.44 10.464C4.552 9.48804 4.736 8.56804 4.992 7.70404C5.248 6.84004 5.6 6.08004 6.048 5.42404C6.496 4.75204 7.048 4.22404 7.704 3.84004C8.376 3.45604 9.184 3.26404 10.128 3.26404C10.4 3.26404 10.688 3.28004 10.992 3.31204C11.296 3.34404 11.584 3.39204 11.856 3.45604Z"
      fill="currentColor"
    />
  </symbol>

  <symbol
    id="account"
    viewBox="0 0 16 20"
  >
    <path
      fill-rule="evenodd"
      clip-rule="evenodd"
      d="M7.85 1.7C6.1103 1.7 4.7 3.1103 4.7 4.85C4.7 6.5897 6.1103 8 7.85 8C9.5897 8 11 6.5897 11 4.85C11 3.1103 9.5897 1.7 7.85 1.7ZM3 4.85C3 2.17142 5.17142 0 7.85 0C10.5286 0 12.7 2.17142 12.7 4.85C12.7 7.52858 10.5286 9.7 7.85 9.7C5.17142 9.7 3 7.52858 3 4.85ZM3.28038 13.6354C2.10399 14.2236 1.7 14.8789 1.7 15.35C1.7 15.8211 2.10399 16.4764 3.28038 17.0646C4.40593 17.6274 6.02035 18 7.85 18C9.67965 18 11.2941 17.6274 12.4196 17.0646C13.596 16.4764 14 15.8211 14 15.35C14 14.8789 13.596 14.2236 12.4196 13.6354C11.2941 13.0726 9.67965 12.7 7.85 12.7C6.02035 12.7 4.40593 13.0726 3.28038 13.6354ZM2.52012 12.1149C3.92807 11.4109 5.81366 11 7.85 11C9.88634 11 11.7719 11.4109 13.1799 12.1149C14.537 12.7934 15.7 13.8881 15.7 15.35C15.7 16.8119 14.537 17.9066 13.1799 18.5851C11.7719 19.2891 9.88634 19.7 7.85 19.7C5.81366 19.7 3.92807 19.2891 2.52012 18.5851C1.16301 17.9066 0 16.8119 0 15.35C0 13.8881 1.16301 12.7934 2.52012 12.1149Z"
      fill="currentColor"
    />
  </symbol>

  <symbol
    id="cart"
    viewBox="0 0 18 18"
  >
    <path
      d="M17.0343 3.05767C16.8234 2.80451 16.5593 2.6009 16.2607 2.4613C15.9622 2.3217 15.6367 2.24954 15.3071 2.24994H3.18142L3.14992 1.9867C3.08546 1.43953 2.82247 0.935026 2.41081 0.568844C1.99915 0.202662 1.46743 0.000256339 0.916477 0L0.749981 0C0.551074 0 0.360313 0.0790157 0.219664 0.219664C0.0790157 0.360313 0 0.551074 0 0.749981C0 0.948889 0.0790157 1.13965 0.219664 1.2803C0.360313 1.42095 0.551074 1.49996 0.749981 1.49996H0.916477C1.10017 1.49999 1.27747 1.56743 1.41474 1.68949C1.55202 1.81156 1.63972 1.97976 1.66121 2.1622L2.69318 10.937C2.80032 11.8495 3.23878 12.691 3.92533 13.3017C4.61189 13.9123 5.49875 14.2497 6.41759 14.2496H14.2496C14.4485 14.2496 14.6393 14.1706 14.78 14.03C14.9206 13.8893 14.9996 13.6986 14.9996 13.4997C14.9996 13.3008 14.9206 13.11 14.78 12.9693C14.6393 12.8287 14.4485 12.7497 14.2496 12.7497H6.41759C5.95339 12.7484 5.50096 12.6035 5.12232 12.335C4.74368 12.0664 4.45737 11.6874 4.30264 11.2497H13.2424C14.1216 11.2498 14.9729 10.9409 15.6475 10.3771C16.3221 9.81324 16.7771 9.0303 16.9331 8.16504L17.5218 4.89963C17.5806 4.57564 17.5674 4.24269 17.4831 3.92438C17.3989 3.60607 17.2457 3.31017 17.0343 3.05767ZM16.0496 4.63338L15.4601 7.8988C15.3665 8.41854 15.093 8.88877 14.6875 9.22717C14.2821 9.56556 13.7705 9.75056 13.2424 9.74975H4.06415L3.35842 3.74991H15.3071C15.4173 3.74925 15.5263 3.77287 15.6263 3.8191C15.7263 3.86532 15.8149 3.93301 15.8857 4.01735C15.9566 4.1017 16.0081 4.20062 16.0364 4.30709C16.0647 4.41357 16.0692 4.52497 16.0496 4.63338Z"
      fill="currentColor"
    />
    <path
      d="M5.24996 18C6.07836 18 6.74992 17.3284 6.74992 16.5C6.74992 15.6716 6.07836 15.0001 5.24996 15.0001C4.42155 15.0001 3.75 15.6716 3.75 16.5C3.75 17.3284 4.42155 18 5.24996 18Z"
      fill="currentColor"
    />
    <path
      d="M12.7497 18C13.5781 18 14.2496 17.3284 14.2496 16.5C14.2496 15.6716 13.5781 15.0001 12.7497 15.0001C11.9213 15.0001 11.2497 15.6716 11.2497 16.5C11.2497 17.3284 11.9213 18 12.7497 18Z"
      fill="currentColor"
    />
  </symbol>

  <symbol
    id="seafood"
    viewBox="0 0 16 16"
  >
    <path
      d="M7.3282 3.51176C5.48673 3.65019 3.70986 4.2505 2.16175 5.25723C2.36418 4.45056 2.79292 3.71854 3.39747 3.14739C4.00203 2.57624 4.75721 2.18975 5.57407 2.03344C5.79022 1.98996 6.0134 1.9958 6.22698 2.05054C6.44056 2.10527 6.63904 2.20749 6.80764 2.34958C6.97624 2.49167 7.1106 2.66996 7.20073 2.87118C7.29086 3.0724 7.33443 3.29136 7.3282 3.51176ZM15.7584 3.49644C15.5164 3.16536 15.2095 2.88709 14.8563 2.67862C14.5032 2.47015 14.1113 2.33585 13.7045 2.28394C13.6526 1.87715 13.5183 1.48522 13.3098 1.13208C13.1013 0.77894 12.8231 0.472003 12.492 0.230013C12.3222 0.10224 12.1202 0.0242604 11.9086 0.00480675C11.697 -0.0146469 11.4841 0.0251938 11.2939 0.119867C11.1036 0.21454 10.9435 0.360307 10.8314 0.540843C10.7193 0.721379 10.6597 0.929554 10.6592 1.14205V4.66297C5.65135 4.66297 2.79398 5.62031 1.30767 8.12326C2.88488 8.53525 4.32366 9.36049 5.47563 10.5139C6.62761 11.6673 7.45109 13.107 7.86117 14.6847C10.3668 13.1991 11.3255 10.3411 11.3255 5.32918L14.8464 5.32918C15.0589 5.32871 15.267 5.2691 15.4476 5.15702C15.6281 5.04493 15.7739 4.8848 15.8686 4.69455C15.9632 4.50431 16.0031 4.29146 15.9836 4.07985C15.9642 3.86824 15.8862 3.66623 15.7584 3.49644ZM12.7911 8.66022H12.4747C12.3742 9.56291 12.1929 10.4548 11.933 11.3251H12.4753C14.1322 11.3764 14.6645 8.74283 12.7911 8.66022ZM6.62934 15.263C5.03044 15.7214 2.27434 16.6907 0.78003 15.2084C0.511679 14.9408 0.303742 14.6189 0.17021 14.2643C0.0366791 13.9097 -0.0193493 13.5306 0.00589515 13.1525C0.0676905 11.8593 0.310097 10.5811 0.726067 9.35508C2.16831 9.68018 3.48867 10.4079 4.53367 11.4538C5.57867 12.4996 6.30538 13.8205 6.62934 15.263ZM3.33094 13.3237C3.33094 13.147 3.26075 12.9775 3.13582 12.8526C3.01088 12.7277 2.84142 12.6575 2.66474 12.6575C2.48805 12.6575 2.31859 12.7277 2.19365 12.8526C2.06872 12.9775 1.99853 13.147 1.99853 13.3237C1.99853 13.5004 2.06872 13.6698 2.19365 13.7948C2.31859 13.9197 2.48805 13.9899 2.66474 13.9899C2.84142 13.9899 3.01088 13.9197 3.13582 13.7948C3.26075 13.6698 3.33094 13.5004 3.33094 13.3237Z"
      fill="currentColor"
    />
  </symbol>

  <symbol
    id="vegetarian"
    viewBox="0 0 16 16"
  >
    <path
      d="M16 1C16 4.55 13.3562 7.48438 9.93125 7.9375C9.70937 6.26875 8.975 4.7625 7.89062 3.58437C9.0875 1.44687 11.375 0 14 0H15C15.5531 0 16 0.446875 16 1ZM0 3C0 2.44688 0.446875 2 1 2H2C5.86562 2 9 5.13438 9 9V10V15C9 15.5531 8.55313 16 8 16C7.44688 16 7 15.5531 7 15V10C3.13438 10 0 6.86562 0 3Z"
      fill="currentColor"
    />
  </symbol>

  <symbol
    id="fire"
    viewBox="0 0 13 16"
  >
    <path
      d="M7.7805 0.100171C7.77806 0.0239604 7.69497 -0.0254982 7.62967 0.0138634C4.58528 1.84883 4.62208 6.40362 4.65868 7.28069C4.66164 7.35168 4.594 7.40141 4.53002 7.37051C4.16249 7.193 3.17625 6.55923 3.11418 4.84931C3.11141 4.77299 3.02906 4.72431 2.96348 4.76345C1.18898 5.82271 0 7.76973 0 9.92812C0 13.2418 2.78578 15.9281 6.22222 15.9281C9.65866 15.9281 12.4444 13.2418 12.4444 9.92812C12.4444 5.12163 7.90798 4.08199 7.7805 0.100171Z"
      fill="currentColor"
    />
  </symbol>

  <symbol
    id="chief"
    viewBox="0 0 16 12"
  >
    <path
      d="M9 2.07937V1.5H9.5C9.77625 1.5 10 1.27625 10 1V0.5C10 0.22375 9.77625 0 9.5 0H6.5C6.22375 0 6 0.22375 6 0.5V1C6 1.27625 6.22375 1.5 6.5 1.5H7V2.07937C3.60906 2.56594 1 5.47437 1 9H15C15 5.47437 12.3909 2.56594 9 2.07937ZM15.5 10H0.5C0.22375 10 0 10.2238 0 10.5V11.5C0 11.7762 0.22375 12 0.5 12H15.5C15.7762 12 16 11.7762 16 11.5V10.5C16 10.2238 15.7762 10 15.5 10Z"
      fill="currentColor"
    />
  </symbol>

  <symbol
    id="beef"
    viewBox="0 0 16 16"
  >
    <path
      d="M12.6493 2C13.0905 1.42641 13.3309 0.723646 13.3333 0H12C12 0.530433 11.7893 1.03914 11.4142 1.41421C11.0391 1.78929 10.5304 2 10 2H6C5.46957 2 4.96086 1.78929 4.58579 1.41421C4.21071 1.03914 4 0.530433 4 0L2.66667 0C2.66912 0.723646 2.90946 1.42641 3.35067 2H0V2.66667C0.0714002 3.63577 0.46874 4.55217 1.12733 5.26667C2.06766 4.36566 3.05931 3.5198 4.09733 2.73333C4.54584 3.04262 5.0639 3.23614 5.60533 3.29667C5.60533 3.29667 3.718 4.718 3.02533 5.33333H4C4.88373 5.33439 5.73096 5.68592 6.35585 6.31081C6.98075 6.93571 7.33227 7.78294 7.33333 8.66667V12H6V8.66667C5.99804 8.43148 5.95424 8.19851 5.87067 7.97867C5.70862 8.01222 5.54077 8.00503 5.38218 7.95775C5.22359 7.91046 5.07922 7.82456 4.962 7.70774C4.84479 7.59092 4.7584 7.44684 4.71057 7.28841C4.66275 7.12998 4.655 6.96216 4.688 6.8C4.46838 6.71512 4.23542 6.66998 4 6.66667H2.29L4.014 14.1333C4.04678 14.6383 4.2701 15.1119 4.63879 15.4584C5.00748 15.8049 5.49402 15.9985 6 16H10C10.506 15.9985 10.9925 15.8049 11.3612 15.4584C11.7299 15.1119 11.9532 14.6383 11.986 14.1333L13.71 6.66667H12C11.7648 6.6687 11.5319 6.71249 11.312 6.796C11.3456 6.95805 11.3384 7.1259 11.2911 7.28448C11.2438 7.44307 11.1579 7.58745 11.0411 7.70466C10.9243 7.82188 10.7802 7.90827 10.6217 7.95609C10.4633 8.00392 10.2955 8.01167 10.1333 7.97867C10.0484 8.19826 10.0032 8.43124 10 8.66667V12H8.66667V8.66667C8.66773 7.78294 9.01925 6.93571 9.64415 6.31081C10.269 5.68592 11.1163 5.33439 12 5.33333H12.9747C12.282 4.718 10.3947 3.29333 10.3947 3.29333C10.9358 3.23381 11.4538 3.04143 11.9027 2.73333C12.9407 3.5198 13.9323 4.36566 14.8727 5.26667C15.5313 4.55217 15.9286 3.63577 16 2.66667V2H12.6493ZM10 13.3333C10.1768 13.3333 10.3464 13.4036 10.4714 13.5286C10.5964 13.6536 10.6667 13.8232 10.6667 14C10.6667 14.1768 10.5964 14.3464 10.4714 14.4714C10.3464 14.5964 10.1768 14.6667 10 14.6667H6C5.82319 14.6667 5.65362 14.5964 5.5286 14.4714C5.40357 14.3464 5.33333 14.1768 5.33333 14C5.33333 13.8232 5.40357 13.6536 5.5286 13.5286C5.65362 13.4036 5.82319 13.3333 6 13.3333H10Z"
      fill="currentColor"
    />
  </symbol>

  <symbol
    id="sharp"
    viewBox="0 0 16 16"
  >
    <path
      d="M10.3339 8.22218V5.41831L8.68536 4.6614C6.85779 6.83587 6.17463 12.4999 1.75007 12.4999C1.28592 12.4999 0.840787 12.6842 0.512584 13.0124C0.184382 13.3406 0 13.7858 0 14.2499C0 14.7141 0.184382 15.1592 0.512584 15.4874C0.840787 15.8156 1.28592 16 1.75007 16C8.39535 16 13.3334 12.1602 14.85 9.4266L13.6921 8.22218H10.3339ZM14.4306 4.21045C15.4356 2.34037 14.9125 0.82687 14.3325 0.0930895C14.3103 0.0656475 14.2827 0.0431944 14.2513 0.0272037C14.2198 0.0112131 14.1854 0.00204638 14.1502 0.000305197C14.115 -0.00143599 14.0798 0.00428771 14.047 0.0171007C14.0141 0.0299136 13.9844 0.0495262 13.9596 0.0746512L13.244 0.793431C13.2029 0.835175 13.1777 0.889931 13.1726 0.948279C13.1675 1.00663 13.1829 1.06492 13.2162 1.11313C13.4306 1.4369 13.749 2.21005 13.1724 3.37323C12.6091 3.12696 12.0009 2.99971 11.3861 2.99946C10.5111 2.99946 9.69853 3.26635 9.00037 3.70543L11.3339 4.77703V7.22214H14.1181L15.8269 8.99971C15.9288 8.60532 16.0007 8.19874 16.0007 7.77122C16.0013 7.1011 15.862 6.43823 15.5916 5.82506C15.3212 5.2119 14.9258 4.66196 14.4306 4.21045Z"
      fill="currentColor"
    />
  </symbol>

  <symbol
    id="new"
    viewBox="0 0 10 16"
  >
    <path
      d="M2.52029 0.359C2.55076 0.255329 2.614 0.164319 2.70053 0.0996C2.78707 0.0348812 2.89224 -6.31864e-05 3.00029 8.57716e-08H7.00029C7.07948 6.01937e-05 7.15751 0.018926 7.22798 0.0550444C7.29845 0.0911628 7.35933 0.143501 7.40561 0.20775C7.45189 0.271999 7.48225 0.346322 7.4942 0.424601C7.50614 0.502879 7.49931 0.582874 7.47429 0.658L5.69429 6H9.50029C9.59393 5.99994 9.6857 6.02616 9.76515 6.0757C9.84461 6.12523 9.90857 6.19608 9.94973 6.28019C9.99089 6.36429 10.0076 6.45825 9.99799 6.55139C9.98837 6.64453 9.95278 6.73309 9.89529 6.807L2.89529 15.807C2.82358 15.8996 2.72162 15.9642 2.60719 15.9893C2.49277 16.0144 2.37315 15.9986 2.26921 15.9446C2.16527 15.8905 2.08361 15.8017 2.03848 15.6935C1.99336 15.5854 1.98763 15.4649 2.02229 15.353L3.82329 9.5H0.500293C0.422558 9.50005 0.345882 9.48197 0.276356 9.4472C0.206831 9.41243 0.14637 9.36192 0.0997753 9.2997C0.0531808 9.23748 0.0217362 9.16525 0.00793889 9.08875C-0.00585846 9.01225 -0.00162858 8.93358 0.0202928 8.859L2.52029 0.359Z"
      fill="currentColor"
    />
  </symbol>

  <symbol
    id="vk"
    viewBox="0 0 20 12"
  >
    <path
      d="M12.1106 5.59545C11.7449 5.45794 11.7449 4.93278 11.7222 4.56707C11.6308 3.26442 12.0879 1.27569 11.5394 0.430166C11.151 -0.0730509 9.27636 -0.0269716 8.13388 0.0417819C7.81352 0.0878613 7.42513 0.155884 7.15085 0.293391C6.87657 0.430898 6.60229 0.6591 6.60229 0.864629C6.60229 1.16159 7.28836 1.11624 7.53924 1.50462C7.81352 1.91641 7.81352 2.80728 7.81352 3.5387C7.81352 4.38422 7.67601 5.50475 7.33371 5.5501C6.80782 5.57278 6.51086 5.04689 6.23658 4.6585C5.68801 3.90441 5.13945 2.96673 4.72766 2.05245C4.52213 1.57264 4.4073 1.04675 4.11034 0.841224C3.6532 0.520862 2.83036 0.498188 2.03018 0.520862C1.29876 0.543536 0.246983 0.452109 0.0414545 0.886572C-0.118726 1.36638 0.224309 1.82352 0.407164 2.21264C1.34411 4.24671 2.34981 6.02991 3.58445 7.72096C4.72766 9.2979 5.80138 10.5552 7.90421 11.2179C8.49886 11.4007 11.1042 11.9266 11.6301 11.2179C11.8129 10.9436 11.7676 10.3263 11.859 9.86913C11.9504 9.412 12.0645 8.95486 12.499 8.93219C12.8647 8.90951 13.0702 9.22914 13.2992 9.45808C13.5508 9.70969 13.7563 9.91521 13.9392 10.1441C14.3736 10.5786 14.8308 11.1725 15.3793 11.4015C16.1334 11.7218 17.2993 11.6304 18.3964 11.5843C19.288 11.5616 19.928 11.3788 19.9968 10.8529C20.0429 10.4411 19.585 9.84719 19.3107 9.50416C18.6246 8.65864 18.305 8.40703 17.5275 7.62953C17.1845 7.28649 16.75 6.92078 16.75 6.50972C16.7273 6.25812 16.9329 6.02991 17.1157 5.77831C17.9159 4.58975 18.7161 3.74423 19.4475 2.50959C19.653 2.14388 20.1335 1.29836 19.9507 0.886572C19.7452 0.429435 18.602 0.56621 17.8932 0.56621C16.9789 0.56621 15.7904 0.497456 15.5614 0.680311C15.127 0.977268 14.9441 1.45781 14.7386 1.91495C14.2815 2.96673 13.6641 4.04045 13.0241 4.84063C12.7952 5.11491 12.3615 5.68615 12.1099 5.59472L12.1106 5.59545Z"
      fill="currentColor"
    />
  </symbol>

  <symbol
    id="whats-app"
    viewBox="0 0 19 20"
  >
    <path
      d="M9.375 0C4.1875 0 0 4.1875 0 9.375C0 11.5 0.6875 13.5 2 15.125L0.6875 19.125C0.625 19.375 0.6875 19.625 0.875 19.8125C0.9375 19.9375 1.125 20 1.25 20C1.3125 20 1.4375 20 1.5 19.9375L5.8125 18C6.9375 18.5 8.125 18.75 9.375 18.75C14.5625 18.75 18.75 14.5625 18.75 9.375C18.75 4.1875 14.5625 0 9.375 0ZM14.8125 12.8125C14.5625 13.5625 13.625 14.1875 12.8125 14.3125C12.625 14.375 12.4375 14.375 12.1875 14.375C11.6875 14.375 10.9375 14.25 9.625 13.6875C8.125 13.0625 6.625 11.75 5.4375 10.0625V10C5.0625 9.4375 4.375 8.375 4.375 7.25C4.375 5.875 5.0625 5.1875 5.3125 4.875C5.625 4.5625 6.0625 4.375 6.5625 4.375C6.6875 4.375 6.75 4.375 6.875 4.375C7.3125 4.375 7.625 4.5 7.9375 5.125L8.1875 5.625C8.375 6.125 8.625 6.6875 8.6875 6.75C8.875 7.125 8.875 7.4375 8.6875 7.75C8.625 7.9375 8.5 8.0625 8.375 8.1875C8.3125 8.3125 8.25 8.375 8.1875 8.375C8.125 8.4375 8.125 8.4375 8.0625 8.5C8.25 8.8125 8.625 9.375 9.125 9.8125C9.875 10.5 10.4375 10.6875 10.75 10.8125C10.875 10.6875 11 10.4375 11.1875 10.25L11.25 10.125C11.5625 9.6875 12.0625 9.5625 12.5625 9.75C12.8125 9.875 14.1875 10.5 14.1875 10.5L14.3125 10.5625C14.5 10.6875 14.75 10.75 14.875 11C15.125 11.5625 14.9375 12.375 14.8125 12.8125Z"
      fill="currentColor"
    />
  </symbol>

  <symbol
    id="telegram"
    viewBox="0 0 18 15"
  >
    <path
      d="M16.4654 0.132424C16.4654 0.132424 18.1306 -0.516862 17.9918 1.05998C17.9455 1.70927 17.5293 3.98177 17.2055 6.4398L16.0954 13.7211C16.0954 13.7211 16.0029 14.7878 15.1703 14.9733C14.3377 15.1588 13.0889 14.324 12.8576 14.1385C12.6726 13.9994 9.38863 11.9124 8.23226 10.8921C7.90848 10.6138 7.53845 10.0572 8.27851 9.40796L13.1352 4.77022C13.6902 4.21367 14.2453 2.9151 11.9326 4.49195L5.45705 8.89783C5.45705 8.89783 4.71699 9.36159 3.3294 8.94421L0.322895 8.01665C0.322895 8.01665 -0.787196 7.32099 1.10921 6.62529C5.73459 4.44553 11.4238 2.2194 16.4654 0.132424Z"
      fill="currentColor"
    />
  </symbol>

  <symbol
    id="app-store"
    viewBox="0 0 138 40"
  >
    <path
      d="M132.889 0.801252C135.255 0.801252 137.181 2.685 137.181 5V35C137.181 37.315 135.255 39.1988 132.889 39.1988H5.11111C2.74467 39.1988 0.819055 37.315 0.819055 35V5C0.819055 2.685 2.74467 0.801252 5.11111 0.801252H132.889ZM132.889 2.11397e-06H5.11111C2.30128 2.11397e-06 0 2.25125 0 5V35C0 37.7487 2.30128 40 5.11111 40H132.889C135.699 40 138 37.7487 138 35V5C138 2.25125 135.699 2.11397e-06 132.889 2.11397e-06Z"
      fill="currentColor"
    />
    <path
      d="M30.7975 19.784C30.7679 16.561 33.4952 14.993 33.6199 14.92C32.0753 12.717 29.6812 12.416 28.84 12.392C26.8292 12.185 24.8788 13.569 23.8546 13.569C22.8099 13.569 21.2326 12.412 19.5326 12.446C17.3451 12.479 15.2986 13.718 14.1762 15.642C11.8598 19.565 13.5874 25.33 15.8066 28.501C16.9168 30.054 18.214 31.788 19.9119 31.727C21.573 31.66 22.1935 30.691 24.198 30.691C26.1842 30.691 26.7669 31.727 28.4985 31.688C30.2813 31.66 31.4037 30.128 32.475 28.561C33.7579 26.781 34.2731 25.028 34.2935 24.938C34.2516 24.924 30.8312 23.647 30.7975 19.784Z"
      fill="currentColor"
    />
    <path
      d="M27.5264 10.306C28.4198 9.21304 29.0311 7.72604 28.8614 6.21704C27.5683 6.27304 25.9512 7.09204 25.0199 8.16104C24.196 9.10304 23.46 10.647 23.6501 12.099C25.1027 12.205 26.5941 11.382 27.5264 10.306Z"
      fill="currentColor"
    />
    <path
      d="M54.8372 31.5039H52.5157L51.2441 27.5949H46.824L45.6127 31.5039H43.3525L47.7317 18.1959H50.4365L54.8372 31.5039ZM50.8608 25.9549L49.7108 22.4799C49.5891 22.1249 49.3612 21.2889 49.0248 19.9729H48.984C48.85 20.5389 48.6344 21.3749 48.3379 22.4799L47.2084 25.9549H50.8608Z"
      fill="currentColor"
    />
    <path
      d="M66.0989 26.5879C66.0989 28.2199 65.6481 29.5099 64.7465 30.4569C63.939 31.2999 62.9362 31.7209 61.7392 31.7209C60.4471 31.7209 59.5189 31.2669 58.9536 30.3589H58.9127V35.4139H56.7333V25.0669C56.7333 24.0409 56.7057 22.9879 56.6526 21.9079H58.5693L58.6909 23.4289H58.7318C59.4586 22.2829 60.5616 21.7109 62.0417 21.7109C63.1989 21.7109 64.1649 22.1579 64.9377 23.0529C65.7125 23.9489 66.0989 25.1269 66.0989 26.5879ZM63.8787 26.6659C63.8787 25.7319 63.664 24.9619 63.2326 24.3559C62.7614 23.7239 62.1286 23.4079 61.3354 23.4079C60.7977 23.4079 60.3091 23.5839 59.8726 23.9309C59.4351 24.2809 59.1489 24.7379 59.0149 25.3039C58.9475 25.5679 58.9137 25.7839 58.9137 25.9539V27.5539C58.9137 28.2519 59.1325 28.8409 59.57 29.3219C60.0075 29.8029 60.5759 30.0429 61.2751 30.0429C62.0959 30.0429 62.7348 29.7329 63.1917 29.1149C63.6497 28.4959 63.8787 27.6799 63.8787 26.6659Z"
      fill="currentColor"
    />
    <path
      d="M77.3814 26.5879C77.3814 28.2199 76.9306 29.5099 76.0279 30.4569C75.2214 31.2999 74.2186 31.7209 73.0216 31.7209C71.7295 31.7209 70.8013 31.2669 70.2371 30.3589H70.1962V35.4139H68.0168V25.0669C68.0168 24.0409 67.9892 22.9879 67.936 21.9079H69.8527L69.9743 23.4289H70.0152C70.741 22.2829 71.844 21.7109 73.3252 21.7109C74.4813 21.7109 75.4473 22.1579 76.2222 23.0529C76.994 23.9489 77.3814 25.1269 77.3814 26.5879ZM75.1611 26.6659C75.1611 25.7319 74.9454 24.9619 74.514 24.3559C74.0428 23.7239 73.4121 23.4079 72.6178 23.4079C72.0791 23.4079 71.5915 23.5839 71.154 23.9309C70.7165 24.2809 70.4313 24.7379 70.2974 25.3039C70.2309 25.5679 70.1962 25.7839 70.1962 25.9539V27.5539C70.1962 28.2519 70.4149 28.8409 70.8504 29.3219C71.2879 29.8019 71.8563 30.0429 72.5575 30.0429C73.3784 30.0429 74.0172 29.7329 74.4742 29.1149C74.9321 28.4959 75.1611 27.6799 75.1611 26.6659Z"
      fill="currentColor"
    />
    <path
      d="M89.9956 27.772C89.9956 28.904 89.5939 29.825 88.7874 30.536C87.9011 31.313 86.6673 31.701 85.0818 31.701C83.618 31.701 82.4445 31.425 81.5562 30.872L82.0611 29.095C83.0179 29.661 84.0678 29.945 85.2116 29.945C86.0325 29.945 86.6714 29.763 87.1303 29.401C87.5873 29.039 87.8152 28.553 87.8152 27.947C87.8152 27.407 87.6271 26.952 87.2499 26.583C86.8748 26.214 86.2482 25.871 85.3731 25.554C82.9914 24.685 81.8015 23.412 81.8015 21.738C81.8015 20.644 82.2186 19.747 83.0537 19.049C83.8858 18.35 84.9959 18.001 86.3841 18.001C87.622 18.001 88.6504 18.212 89.4712 18.633L88.9264 20.371C88.1597 19.963 87.2929 19.759 86.3228 19.759C85.5561 19.759 84.9571 19.944 84.5278 20.312C84.1649 20.641 83.9829 21.042 83.9829 21.517C83.9829 22.043 84.1904 22.478 84.6075 22.82C84.9704 23.136 85.6297 23.478 86.5865 23.847C87.757 24.308 88.6166 24.847 89.1697 25.465C89.7206 26.081 89.9956 26.852 89.9956 27.772Z"
      fill="currentColor"
    />
    <path
      d="M97.2012 23.508H94.7989V28.167C94.7989 29.352 95.2221 29.944 96.0706 29.944C96.46 29.944 96.7831 29.911 97.0386 29.845L97.0989 31.464C96.6696 31.621 96.1043 31.7 95.4041 31.7C94.5434 31.7 93.8708 31.443 93.3852 30.93C92.9017 30.416 92.6584 29.554 92.6584 28.343V23.506H91.2273V21.906H92.6584V20.149L94.7989 19.517V21.906H97.2012V23.508Z"
      fill="currentColor"
    />
    <path
      d="M108.04 26.6269C108.04 28.1019 107.608 29.3129 106.748 30.2599C105.845 31.2349 104.647 31.7209 103.154 31.7209C101.714 31.7209 100.568 31.2539 99.7137 30.3199C98.8592 29.3859 98.4319 28.2069 98.4319 26.7859C98.4319 25.2989 98.8714 24.0809 99.7536 23.1339C100.634 22.1859 101.822 21.7119 103.315 21.7119C104.754 21.7119 105.913 22.1789 106.786 23.1139C107.623 24.0209 108.04 25.1919 108.04 26.6269ZM105.779 26.6959C105.779 25.8109 105.585 25.0519 105.194 24.4189C104.737 23.6529 104.084 23.2709 103.237 23.2709C102.361 23.2709 101.696 23.6539 101.239 24.4189C100.847 25.0529 100.654 25.8239 100.654 26.7359C100.654 27.6209 100.847 28.3799 101.239 29.0119C101.71 29.7779 102.368 30.1599 103.218 30.1599C104.05 30.1599 104.703 29.7699 105.174 28.9919C105.576 28.3469 105.779 27.5799 105.779 26.6959Z"
      fill="currentColor"
    />
    <path
      d="M115.124 23.7829C114.908 23.7439 114.678 23.7239 114.437 23.7239C113.67 23.7239 113.077 24.0069 112.66 24.5739C112.297 25.0739 112.115 25.7059 112.115 26.4689V31.5039H109.937L109.958 24.9299C109.958 23.8239 109.93 22.8169 109.876 21.9089H111.774L111.854 23.7449H111.914C112.144 23.1139 112.507 22.6059 113.004 22.2249C113.489 21.8819 114.014 21.7109 114.579 21.7109C114.78 21.7109 114.962 21.7249 115.124 21.7499V23.7829Z"
      fill="currentColor"
    />
    <path
      d="M124.871 26.252C124.871 26.634 124.845 26.956 124.791 27.219H118.253C118.278 28.167 118.594 28.892 119.201 29.392C119.752 29.839 120.465 30.063 121.34 30.063C122.308 30.063 123.191 29.912 123.985 29.609L124.327 31.089C123.399 31.485 122.303 31.682 121.038 31.682C119.517 31.682 118.323 31.244 117.454 30.369C116.588 29.494 116.153 28.319 116.153 26.845C116.153 25.398 116.557 24.193 117.365 23.232C118.212 22.206 119.356 21.693 120.795 21.693C122.209 21.693 123.279 22.206 124.006 23.232C124.581 24.047 124.871 25.055 124.871 26.252ZM122.792 25.699C122.807 25.067 122.665 24.521 122.369 24.06C121.992 23.467 121.412 23.171 120.632 23.171C119.92 23.171 119.34 23.46 118.898 24.04C118.535 24.501 118.319 25.054 118.253 25.698H122.792V25.699Z"
      fill="currentColor"
    />
    <path
      d="M45.5469 9.71777H46.4126C47.208 9.71777 47.6826 10.0825 47.6826 10.6978C47.6826 11.3042 47.1816 11.7173 46.439 11.7173C45.6655 11.7173 45.1382 11.3438 45.0898 10.7505H44C44.0571 11.9019 45.0239 12.6577 46.4346 12.6577C47.8188 12.6577 48.8472 11.8491 48.8472 10.7637C48.8472 9.91113 48.3154 9.30469 47.4629 9.20361V9.16846C48.166 9.01025 48.6494 8.42139 48.6494 7.70947C48.6494 6.70312 47.7529 6 46.4565 6C45.0942 6 44.2109 6.7251 44.1538 7.88086H45.2129C45.2612 7.2832 45.7227 6.91406 46.4258 6.91406C47.1201 6.91406 47.5508 7.26562 47.5508 7.83691C47.5508 8.4082 47.0806 8.80371 46.3906 8.80371H45.5469V9.71777Z"
      fill="currentColor"
    />
    <path
      d="M51.5452 11.748C51.0706 11.748 50.7542 11.5063 50.7542 11.124C50.7542 10.7549 51.0574 10.5176 51.5848 10.4824L52.6614 10.4165V10.7725C52.6614 11.335 52.1649 11.748 51.5452 11.748ZM51.2156 12.5742C51.8133 12.5742 52.3978 12.2622 52.6658 11.7568H52.6878V12.4995H53.7425V9.2915C53.7425 8.35547 52.991 7.74463 51.8353 7.74463C50.6487 7.74463 49.9061 8.36865 49.8577 9.23877H50.8729C50.9432 8.85205 51.2728 8.60156 51.7913 8.60156C52.3319 8.60156 52.6614 8.88281 52.6614 9.37061V9.70459L51.431 9.7749C50.2972 9.84521 49.66 10.3418 49.66 11.168C49.66 12.0073 50.3148 12.5742 51.2156 12.5742Z"
      fill="currentColor"
    />
    <path
      d="M58.0402 8.68506V7.84131H54.8805V12.4995H55.9704V8.68506H58.0402Z"
      fill="currentColor"
    />
    <path
      d="M61.5512 7.76221C60.8745 7.76221 60.3471 8.10498 60.0835 8.64551H60.0615V7.84131H58.9936V14.0332H60.0879V11.7261H60.1098C60.3647 12.249 60.8921 12.5742 61.5688 12.5742C62.7378 12.5742 63.4848 11.6558 63.4848 10.1704C63.4848 8.68066 62.7334 7.76221 61.5512 7.76221ZM61.2172 11.6777C60.5361 11.6777 60.0835 11.0845 60.0791 10.1704C60.0835 9.26514 60.5361 8.66309 61.2172 8.66309C61.9248 8.66309 62.3642 9.25195 62.3642 10.1704C62.3642 11.0933 61.9248 11.6777 61.2172 11.6777Z"
      fill="currentColor"
    />
    <path
      d="M64.8601 14.231C65.9236 14.231 66.4378 13.8398 66.8377 12.6841L68.5208 7.84131H67.3694L66.2708 11.5679H66.2532L65.1546 7.84131H63.9593L65.616 12.5039C65.6204 12.5171 65.5545 12.75 65.5545 12.7632C65.4314 13.1938 65.1985 13.3652 64.7459 13.3652C64.68 13.3652 64.4866 13.3608 64.4295 13.3477V14.2134C64.4866 14.2266 64.7986 14.231 64.8601 14.231Z"
      fill="currentColor"
    />
    <path
      d="M71.0343 12.5918C72.234 12.5918 72.9986 12.0117 72.9986 11.1108C72.9986 10.5879 72.691 10.2056 72.1065 10.0649V10.0298C72.5548 9.91113 72.836 9.52002 72.836 9.0498C72.836 8.25 72.1944 7.74463 71.0211 7.74463C69.9312 7.74463 69.2193 8.28516 69.1271 9.16406H70.1642C70.2257 8.80371 70.5421 8.59277 71.0211 8.59277C71.5265 8.59277 71.7682 8.82568 71.7682 9.15967C71.7682 9.5376 71.5089 9.72217 71.0123 9.72217H70.3707V10.478H71.0343C71.6187 10.478 71.9132 10.6714 71.9132 11.0933C71.9132 11.4712 71.5968 11.7305 71.0343 11.7305C70.5245 11.7305 70.1905 11.5151 70.0938 11.1152H69.0304C69.1183 12.0337 69.8873 12.5918 71.0343 12.5918Z"
      fill="currentColor"
    />
    <path
      d="M75.0595 12.4995L77.0854 9.36621H77.1205V12.4995H78.1928V7.84131H77.1205L75.0946 10.9526H75.0595V7.84131H73.9872V12.4995H75.0595Z"
      fill="currentColor"
    />
    <path
      d="M83.0002 7.84131H79.0495V8.68506H80.4822V12.4995H81.5676V8.68506H83.0002V7.84131Z"
      fill="currentColor"
    />
    <path
      d="M85.7818 8.59277C86.4102 8.59277 86.8321 9.0542 86.8541 9.71338H84.6788C84.7227 9.06299 85.1666 8.59277 85.7818 8.59277ZM86.8585 11.1064C86.7398 11.4932 86.3531 11.748 85.8433 11.748C85.127 11.748 84.67 11.2471 84.67 10.5V10.4341H87.9263V10.0781C87.9263 8.66309 87.1002 7.74463 85.7774 7.74463C84.4327 7.74463 83.5801 8.71582 83.5801 10.188C83.5801 11.6733 84.4239 12.5918 85.8213 12.5918C86.9244 12.5918 87.7418 11.9854 87.8824 11.1064H86.8585Z"
      fill="currentColor"
    />
    <path
      d="M92.8259 8.58398C93.2697 8.58398 93.5158 8.79053 93.5158 9.15527C93.5158 9.54199 93.2521 9.74414 92.7424 9.74414H91.9426V8.58398H92.8259ZM92.8083 10.4385C93.3972 10.4385 93.7004 10.6626 93.7004 11.0977C93.7004 11.5239 93.4147 11.7568 92.8962 11.7568H91.9426V10.4385H92.8083ZM90.8703 12.4995H93.1159C94.1486 12.4995 94.7902 11.9766 94.7902 11.1548C94.7902 10.5703 94.3771 10.1396 93.7663 10.0605V10.0254C94.2277 9.94629 94.5837 9.51123 94.5837 9.02344C94.5837 8.28516 94.0212 7.84131 93.0808 7.84131H90.8703V12.4995Z"
      fill="currentColor"
    />
  </symbol>

  <symbol
    id="google-play"
    viewBox="0 0 138 40"
  >
    <path
      d="M132.628 0.801252C134.99 0.801252 136.912 2.685 136.912 5V35C136.912 37.315 134.99 39.1988 132.628 39.1988H5.10109C2.73928 39.1988 0.817449 37.315 0.817449 35V5C0.817449 2.685 2.73928 0.801252 5.10109 0.801252H132.628ZM132.628 2.11397e-06H5.10109C2.29676 2.11397e-06 0 2.25125 0 5V35C0 37.7487 2.29676 40 5.10109 40H132.628C135.433 40 137.729 37.7487 137.729 35V5C137.729 2.25125 135.433 2.11397e-06 132.628 2.11397e-06Z"
      fill="currentColor"
    />
    <path
      d="M69.5122 21.7525C67.1159 21.7525 65.1584 23.54 65.1584 26.0063C65.1584 28.4525 67.1159 30.2588 69.5122 30.2588C71.9135 30.2588 73.871 28.4525 73.871 26.0063C73.871 23.54 71.9135 21.7525 69.5122 21.7525ZM69.5122 28.5838C68.1974 28.5838 67.0662 27.52 67.0662 26.0063C67.0662 24.4725 68.1974 23.4275 69.5122 23.4275C70.827 23.4275 71.9632 24.4725 71.9632 26.0063C71.9632 27.52 70.827 28.5838 69.5122 28.5838ZM60.0127 21.7525C57.6113 21.7525 55.6589 23.54 55.6589 26.0063C55.6589 28.4525 57.6113 30.2588 60.0127 30.2588C62.4127 30.2588 64.3664 28.4525 64.3664 26.0063C64.3664 23.54 62.4127 21.7525 60.0127 21.7525ZM60.0127 28.5838C58.6966 28.5838 57.5616 27.52 57.5616 26.0063C57.5616 24.4725 58.6966 23.4275 60.0127 23.4275C61.3275 23.4275 62.4586 24.4725 62.4586 26.0063C62.4586 27.52 61.3275 28.5838 60.0127 28.5838ZM48.7087 23.0563V24.8638H53.1122C52.9834 25.8738 52.639 26.6163 52.1111 27.1338C51.4683 27.7588 50.4673 28.4525 48.7087 28.4525C45.9987 28.4525 43.8767 26.3088 43.8767 23.6525C43.8767 20.9963 45.9987 18.8525 48.7087 18.8525C50.1739 18.8525 51.2401 19.4138 52.0269 20.1413L53.3264 18.8675C52.2259 17.8375 50.7618 17.0463 48.7087 17.0463C44.9925 17.0463 41.8694 20.01 41.8694 23.6525C41.8694 27.295 44.9925 30.2588 48.7087 30.2588C50.7172 30.2588 52.2259 29.6138 53.4119 28.4038C54.6272 27.2125 55.0059 25.5375 55.0059 24.185C55.0059 23.765 54.9702 23.3788 54.9065 23.0563H48.7087ZM94.9321 24.4575C94.5738 23.5063 93.4681 21.7525 91.216 21.7525C88.9843 21.7525 87.1262 23.4763 87.1262 26.0063C87.1262 28.3888 88.9651 30.2588 91.4302 30.2588C93.4235 30.2588 94.5738 29.0675 95.0469 28.3738L93.5676 27.4075C93.0741 28.115 92.402 28.5838 91.4302 28.5838C90.4649 28.5838 89.7724 28.15 89.3286 27.295L95.1323 24.9413L94.9321 24.4575ZM89.0149 25.8738C88.9651 24.2338 90.3144 23.3938 91.281 23.3938C92.0385 23.3938 92.6813 23.765 92.8955 24.2963L89.0149 25.8738ZM84.2976 30H86.2054V17.5H84.2976V30ZM81.1732 22.7H81.1095C80.681 22.2025 79.8635 21.7525 78.828 21.7525C76.655 21.7525 74.6681 23.6225 74.6681 26.02C74.6681 28.4038 76.655 30.2588 78.828 30.2588C79.8635 30.2588 80.681 29.805 81.1095 29.2925H81.1732V29.9025C81.1732 31.5288 80.2869 32.4025 78.8573 32.4025C77.6917 32.4025 76.9687 31.5775 76.6703 30.8838L75.0111 31.5625C75.4893 32.69 76.7557 34.0775 78.8573 34.0775C81.0942 34.0775 82.9816 32.7875 82.9816 29.6488V22.0113H81.1732V22.7ZM78.9912 28.5838C77.6764 28.5838 76.5759 27.505 76.5759 26.02C76.5759 24.5213 77.6764 23.4275 78.9912 23.4275C80.2869 23.4275 81.3084 24.5213 81.3084 26.02C81.3084 27.505 80.2869 28.5838 78.9912 28.5838ZM103.864 17.5H99.3012V30H101.204V25.2638H103.864C105.977 25.2638 108.05 23.765 108.05 21.3813C108.05 18.9988 105.972 17.5 103.864 17.5ZM103.914 23.525H101.204V19.2388H103.914C105.335 19.2388 106.146 20.395 106.146 21.3813C106.146 22.3488 105.335 23.525 103.914 23.525ZM115.676 21.7288C114.301 21.7288 112.871 22.3238 112.283 23.6425L113.972 24.3363C114.335 23.6425 115.004 23.4175 115.71 23.4175C116.697 23.4175 117.698 23.9988 117.714 25.025V25.1563C117.369 24.9613 116.632 24.6725 115.725 24.6725C113.907 24.6725 112.054 25.6538 112.054 27.485C112.054 29.16 113.543 30.2388 115.218 30.2388C116.498 30.2388 117.205 29.6725 117.649 29.0138H117.714V29.98H119.551V25.185C119.551 22.9688 117.863 21.7288 115.676 21.7288ZM115.446 28.5788C114.824 28.5788 113.957 28.2763 113.957 27.52C113.957 26.5525 115.038 26.1813 115.974 26.1813C116.812 26.1813 117.205 26.3625 117.714 26.6013C117.564 27.7588 116.548 28.5788 115.446 28.5788ZM126.246 22.0025L124.059 27.4213H123.994L121.733 22.0025H119.681L123.079 29.575L121.14 33.7888H123.128L128.363 22.0025H126.246ZM109.095 30H111.003V17.5H109.095V30Z"
      fill="currentColor"
    />
    <path
      d="M10.6465 7.53869C10.3468 7.84619 10.1733 8.32494 10.1733 8.94494V31.0599C10.1733 31.6799 10.3468 32.1587 10.6465 32.4662L10.7204 32.5337L23.3635 20.1462V19.8537L10.7204 7.46619L10.6465 7.53869Z"
      fill="url(#paint0_linear_152_2616)"
      fill-opacity="var(--play-opacity, 0.5)"
    />
    <path
      d="M27.5727 24.2775L23.363 20.1462V19.8537L27.5778 15.7225L27.6722 15.7762L32.6636 18.56C34.0881 19.35 34.0881 20.65 32.6636 21.445L27.6722 24.2237L27.5727 24.2775Z"
      fill="url(#paint1_linear_152_2616)"
      fill-opacity="var(--play-opacity, 0.5)"
    />
    <path
      d="M27.6714 24.2237L23.3623 20L10.6453 32.4662C11.1184 32.9537 11.8899 33.0125 12.7673 32.525L27.6714 24.2237Z"
      fill="url(#paint2_linear_152_2616)"
      fill-opacity="var(--play-opacity, 0.5)"
    />
    <path
      d="M27.6714 15.7763L12.7673 7.475C11.8899 6.9925 11.1184 7.05125 10.6453 7.53875L23.3623 20L27.6714 15.7763Z"
      fill="url(#paint3_linear_152_2616)"
      fill-opacity="var(--play-opacity, 0.5)"
    />
    <path
      d="M49.4398 11.4492V12.3984H44.7864V11.4492H49.4398ZM45.1153 11.4492V13.9673H43.9706L43.9136 11.4492H45.1153ZM50.3389 11.4492L50.2468 13.9717H49.1284V11.4492H50.3389ZM48.6898 6V6.95361H45.6811V6H48.6898ZM49.5802 6V12.3984H48.3784V6H49.5802ZM45.4881 6H46.6942L46.532 8.60156C46.5086 9.02051 46.4647 9.39404 46.4004 9.72217C46.339 10.0503 46.263 10.3418 46.1723 10.5967C46.0817 10.8516 45.9808 11.0757 45.8697 11.269C45.7615 11.4595 45.646 11.625 45.5232 11.7656C45.4033 11.9062 45.2791 12.0278 45.1504 12.1304C45.0247 12.23 44.9004 12.3193 44.7776 12.3984H44.1066V11.4492H44.396C44.4808 11.376 44.57 11.2734 44.6636 11.1416C44.7601 11.0098 44.8522 10.8354 44.9399 10.6187C45.0305 10.4019 45.1095 10.1279 45.1767 9.79688C45.244 9.46582 45.2922 9.06738 45.3215 8.60156L45.4881 6Z"
      fill="currentColor"
    />
    <path
      d="M50.9791 10.0693V9.97705C50.9791 9.62842 51.0288 9.30762 51.1282 9.01465C51.2276 8.71875 51.3724 8.4624 51.5624 8.24561C51.7525 8.02881 51.9849 7.86035 52.2598 7.74023C52.5346 7.61719 52.8475 7.55566 53.1984 7.55566C53.5551 7.55566 53.8709 7.61719 54.1457 7.74023C54.4235 7.86035 54.6574 8.02881 54.8475 8.24561C55.0375 8.4624 55.1823 8.71875 55.2817 9.01465C55.3811 9.30762 55.4308 9.62842 55.4308 9.97705V10.0693C55.4308 10.415 55.3811 10.7358 55.2817 11.0317C55.1823 11.3247 55.0375 11.5811 54.8475 11.8008C54.6574 12.0176 54.425 12.186 54.1501 12.3062C53.8753 12.4263 53.5609 12.4863 53.2071 12.4863C52.8563 12.4863 52.5419 12.4263 52.2642 12.3062C51.9864 12.186 51.7525 12.0176 51.5624 11.8008C51.3724 11.5811 51.2276 11.3247 51.1282 11.0317C51.0288 10.7358 50.9791 10.415 50.9791 10.0693ZM52.137 9.97705V10.0693C52.137 10.2773 52.1574 10.4722 52.1984 10.6538C52.2393 10.8354 52.3022 10.9951 52.387 11.1328C52.4718 11.2705 52.5814 11.3789 52.7159 11.458C52.8533 11.5342 53.0171 11.5723 53.2071 11.5723C53.3943 11.5723 53.5551 11.5342 53.6896 11.458C53.8241 11.3789 53.9337 11.2705 54.0185 11.1328C54.1062 10.9951 54.1706 10.8354 54.2115 10.6538C54.2524 10.4722 54.2729 10.2773 54.2729 10.0693V9.97705C54.2729 9.77197 54.2524 9.58008 54.2115 9.40137C54.1706 9.21973 54.1062 9.06006 54.0185 8.92236C53.9337 8.78174 53.8226 8.67188 53.6852 8.59277C53.5507 8.51074 53.3884 8.46973 53.1984 8.46973C53.0112 8.46973 52.8504 8.51074 52.7159 8.59277C52.5814 8.67188 52.4718 8.78174 52.387 8.92236C52.3022 9.06006 52.2393 9.21973 52.1984 9.40137C52.1574 9.58008 52.137 9.77197 52.137 9.97705Z"
      fill="currentColor"
    />
    <path
      d="M58.3999 11.5723C58.5636 11.5723 58.7098 11.54 58.8385 11.4756C58.9671 11.4111 59.0695 11.3203 59.1455 11.2031C59.2244 11.0859 59.2668 10.9497 59.2727 10.7944H60.3648C60.3589 11.1167 60.2683 11.4053 60.0929 11.6602C59.9174 11.915 59.6835 12.1172 59.3911 12.2666C59.1016 12.4131 58.7771 12.4863 58.4174 12.4863C58.0519 12.4863 57.7332 12.4248 57.4613 12.3018C57.1894 12.1787 56.9628 12.0073 56.7815 11.7876C56.6031 11.5679 56.4686 11.313 56.378 11.0229C56.2903 10.7329 56.2464 10.4224 56.2464 10.0913V9.95068C56.2464 9.61963 56.2903 9.30908 56.378 9.01904C56.4686 8.729 56.6031 8.47412 56.7815 8.25439C56.9628 8.03467 57.1894 7.86328 57.4613 7.74023C57.7332 7.61719 58.0505 7.55566 58.413 7.55566C58.7961 7.55566 59.1323 7.63037 59.4218 7.77979C59.7142 7.9292 59.9423 8.14014 60.106 8.4126C60.2727 8.68506 60.3589 9.00586 60.3648 9.375H59.2727C59.2668 9.20508 59.2288 9.05273 59.1587 8.91797C59.0885 8.7832 58.9891 8.6748 58.8604 8.59277C58.7318 8.51074 58.5753 8.46973 58.3911 8.46973C58.1952 8.46973 58.0315 8.51074 57.8999 8.59277C57.7712 8.6748 57.6704 8.7876 57.5973 8.93115C57.5271 9.07178 57.4774 9.22998 57.4481 9.40576C57.4218 9.57861 57.4087 9.76025 57.4087 9.95068V10.0913C57.4087 10.2847 57.4218 10.4692 57.4481 10.645C57.4774 10.8208 57.5271 10.979 57.5973 11.1196C57.6704 11.2573 57.7712 11.3672 57.8999 11.4492C58.0315 11.5312 58.1981 11.5723 58.3999 11.5723Z"
      fill="currentColor"
    />
    <path
      d="M63.619 7.64355V12.3984H62.4567V7.64355H63.619ZM65.1628 7.64355V8.54883H60.9392V7.64355H65.1628Z"
      fill="currentColor"
    />
    <path
      d="M67.4652 11.8711L68.7371 7.64355H69.9783L68.0749 13.1191C68.031 13.2363 67.974 13.3638 67.9038 13.5015C67.8366 13.6392 67.7459 13.7695 67.6319 13.8926C67.5178 14.0186 67.3746 14.1211 67.2021 14.2002C67.0325 14.2793 66.8263 14.3188 66.5837 14.3188C66.4784 14.3188 66.3848 14.3115 66.303 14.2969C66.2211 14.2822 66.1348 14.2632 66.0442 14.2397V13.3696C66.0734 13.3726 66.107 13.374 66.1451 13.374C66.186 13.377 66.2211 13.3784 66.2503 13.3784C66.4199 13.3784 66.5603 13.3579 66.6714 13.3169C66.7825 13.2788 66.8717 13.2158 66.9389 13.1279C67.0091 13.043 67.0676 12.9316 67.1143 12.7939L67.4652 11.8711ZM66.838 7.64355L67.9126 11.146L68.1012 12.3721L67.3029 12.5171L65.588 7.64355H66.838Z"
      fill="currentColor"
    />
    <path
      d="M73.9036 7.64355V8.56201H71.5834V7.64355H73.9036ZM71.8904 7.64355V12.3984H70.7282V7.64355H71.8904ZM74.7807 7.64355V12.3984H73.6141V7.64355H74.7807Z"
      fill="currentColor"
    />
    <path
      d="M79.2542 9.59473V10.5044H76.82V9.59473H79.2542ZM77.184 7.64355V12.3984H76.0218V7.64355H77.184ZM80.0656 7.64355V12.3984H78.8989V7.64355H80.0656Z"
      fill="currentColor"
    />
    <path
      d="M81.0917 10.0693V9.97705C81.0917 9.62842 81.1414 9.30762 81.2408 9.01465C81.3402 8.71875 81.485 8.4624 81.675 8.24561C81.8651 8.02881 82.0975 7.86035 82.3724 7.74023C82.6472 7.61719 82.9601 7.55566 83.311 7.55566C83.6677 7.55566 83.9835 7.61719 84.2583 7.74023C84.5361 7.86035 84.77 8.02881 84.9601 8.24561C85.1501 8.4624 85.2949 8.71875 85.3943 9.01465C85.4937 9.30762 85.5434 9.62842 85.5434 9.97705V10.0693C85.5434 10.415 85.4937 10.7358 85.3943 11.0317C85.2949 11.3247 85.1501 11.5811 84.9601 11.8008C84.77 12.0176 84.5376 12.186 84.2627 12.3062C83.9879 12.4263 83.6736 12.4863 83.3198 12.4863C82.9689 12.4863 82.6546 12.4263 82.3768 12.3062C82.099 12.186 81.8651 12.0176 81.675 11.8008C81.485 11.5811 81.3402 11.3247 81.2408 11.0317C81.1414 10.7358 81.0917 10.415 81.0917 10.0693ZM82.2496 9.97705V10.0693C82.2496 10.2773 82.2701 10.4722 82.311 10.6538C82.3519 10.8354 82.4148 10.9951 82.4996 11.1328C82.5844 11.2705 82.694 11.3789 82.8285 11.458C82.966 11.5342 83.1297 11.5723 83.3198 11.5723C83.5069 11.5723 83.6677 11.5342 83.8022 11.458C83.9367 11.3789 84.0464 11.2705 84.1311 11.1328C84.2189 10.9951 84.2832 10.8354 84.3241 10.6538C84.3651 10.4722 84.3855 10.2773 84.3855 10.0693V9.97705C84.3855 9.77197 84.3651 9.58008 84.3241 9.40137C84.2832 9.21973 84.2189 9.06006 84.1311 8.92236C84.0464 8.78174 83.9352 8.67188 83.7978 8.59277C83.6633 8.51074 83.501 8.46973 83.311 8.46973C83.1239 8.46973 82.963 8.51074 82.8285 8.59277C82.694 8.67188 82.5844 8.78174 82.4996 8.92236C82.4148 9.06006 82.3519 9.21973 82.311 9.40137C82.2701 9.58008 82.2496 9.77197 82.2496 9.97705Z"
      fill="currentColor"
    />
    <path
      d="M91.3149 10.3857H89.8106L89.8018 9.59912H91.0386C91.2228 9.59912 91.3734 9.58008 91.4904 9.54199C91.6073 9.50391 91.6936 9.44678 91.7491 9.37061C91.8076 9.29443 91.8368 9.20215 91.8368 9.09375C91.8368 9 91.8193 8.91943 91.7842 8.85205C91.7491 8.78174 91.6965 8.72461 91.6263 8.68066C91.5591 8.63672 91.4728 8.60449 91.3676 8.58398C91.2652 8.56055 91.1453 8.54883 91.0079 8.54883H90.2228V12.3984H89.0606V7.64355H91.0079C91.3149 7.64355 91.5912 7.67139 91.8368 7.72705C92.0825 7.77979 92.2915 7.86035 92.464 7.96875C92.6365 8.07715 92.7681 8.21484 92.8588 8.38184C92.9523 8.5459 92.9991 8.73926 92.9991 8.96191C92.9991 9.1084 92.9669 9.24609 92.9026 9.375C92.8383 9.50391 92.7433 9.61816 92.6175 9.71777C92.4918 9.81738 92.3368 9.89941 92.1526 9.96387C91.9684 10.0254 91.7579 10.0635 91.5211 10.0781L91.3149 10.3857ZM91.3149 12.3984H89.4992L89.929 11.4932H91.3149C91.4845 11.4932 91.6249 11.4727 91.736 11.4316C91.8471 11.3877 91.929 11.3247 91.9816 11.2427C92.0371 11.1606 92.0649 11.061 92.0649 10.9438C92.0649 10.8296 92.0386 10.7314 91.986 10.6494C91.9363 10.5645 91.8559 10.5 91.7447 10.4561C91.6366 10.4092 91.4933 10.3857 91.3149 10.3857H90.1176L90.1263 9.59912H91.5167L91.8237 9.91113C92.1395 9.93164 92.4012 9.99609 92.6088 10.1045C92.8164 10.21 92.9713 10.3447 93.0737 10.5088C93.176 10.6699 93.2272 10.8472 93.2272 11.0405C93.2272 11.2661 93.1848 11.4639 93.1 11.6338C93.0152 11.8037 92.8909 11.9458 92.7272 12.0601C92.5634 12.1714 92.3632 12.2563 92.1263 12.3149C91.8895 12.3706 91.619 12.3984 91.3149 12.3984Z"
      fill="currentColor"
    />
    <defs>
      <linearGradient
        id="paint0_linear_152_2616"
        x1="22.2409"
        y1="31.2902"
        x2="5.46188"
        y2="14.172"
        gradientUnits="userSpaceOnUse"
      >
        <stop stop-color="#00A0FF" />
        <stop
          offset="0.0066"
          stop-color="#00A1FF"
        />
        <stop
          offset="0.2601"
          stop-color="#00BEFF"
        />
        <stop
          offset="0.5122"
          stop-color="#00D2FF"
        />
        <stop
          offset="0.7604"
          stop-color="#00DFFF"
        />
        <stop
          offset="1"
          stop-color="#00E3FF"
        />
      </linearGradient>
      <linearGradient
        id="paint1_linear_152_2616"
        x1="34.5185"
        y1="19.9986"
        x2="9.83241"
        y2="19.9986"
        gradientUnits="userSpaceOnUse"
      >
        <stop stop-color="#FFE000" />
        <stop
          offset="0.4087"
          stop-color="#FFBD00"
        />
        <stop
          offset="0.7754"
          stop-color="#FFA500"
        />
        <stop
          offset="1"
          stop-color="#FF9C00"
        />
      </linearGradient>
      <linearGradient
        id="paint2_linear_152_2616"
        x1="25.3282"
        y1="17.7039"
        x2="2.57449"
        y2="-5.50988"
        gradientUnits="userSpaceOnUse"
      >
        <stop stop-color="#FF3A44" />
        <stop
          offset="1"
          stop-color="#C31162"
        />
      </linearGradient>
      <linearGradient
        id="paint3_linear_152_2616"
        x1="7.44413"
        y1="39.8238"
        x2="17.6047"
        y2="29.4579"
        gradientUnits="userSpaceOnUse"
      >
        <stop stop-color="#32A071" />
        <stop
          offset="0.0685"
          stop-color="#2DA771"
        />
        <stop
          offset="0.4762"
          stop-color="#15CF74"
        />
        <stop
          offset="0.8009"
          stop-color="#06E775"
        />
        <stop
          offset="1"
          stop-color="#00F076"
        />
      </linearGradient>
    </defs>
  </symbol>

  <symbol
    id="visa"
    viewBox="0 0 32 11"
  >
    <path
      d="M15.8442 0.191657L13.7071 10.5092H11.1208L13.2611 0.191657H15.8442ZM26.7239 6.85337L28.0843 2.97838L28.8685 6.85337H26.7239ZM29.6079 10.5092H32L29.913 0.191657H27.7055C27.7023 0.191657 27.6981 0.191657 27.6949 0.191657C27.2051 0.191657 26.7847 0.50117 26.6076 0.940658L26.6044 0.948368L22.7261 10.5092H25.4404L25.9803 8.96709H29.2974L29.6079 10.5092ZM22.8594 7.14085C22.8701 4.41691 19.2115 4.26711 19.2371 3.04998C19.2457 2.67988 19.586 2.28556 20.3329 2.18532C20.4716 2.171 20.6316 2.16219 20.7938 2.16219C21.5524 2.16219 22.2715 2.34063 22.9117 2.66006L22.8829 2.64684L23.3364 0.458213C22.6183 0.170729 21.7871 0.00330442 20.9186 0H20.9176C18.3612 0 16.5634 1.40438 16.5473 3.41236C16.5313 4.89715 17.8309 5.72436 18.8114 6.22002C19.8197 6.72559 20.1579 7.05053 20.1526 7.50103C20.1462 8.19496 19.3502 8.49897 18.6055 8.51108C18.5714 8.51218 18.5297 8.51218 18.4892 8.51218C17.5599 8.51218 16.685 8.27096 15.921 7.84469L15.9499 7.85901L15.4815 10.1192C16.3201 10.4662 17.2921 10.6667 18.3099 10.6667C18.326 10.6667 18.342 10.6667 18.358 10.6667H18.3558C21.0723 10.6667 22.8488 9.28211 22.8584 7.13755L22.8594 7.14085ZM12.1494 0.191657L7.96052 10.5092H5.22699L3.16564 2.27344C3.12617 1.8725 2.88824 1.53766 2.55748 1.37023L2.55108 1.36693C1.81702 0.99463 0.963457 0.691725 0.0704189 0.50117L0 0.489054L0.0618833 0.190555H4.46199C5.06162 0.190555 5.55988 0.643261 5.65271 1.23475L5.65377 1.24136L6.74313 7.21245L9.43398 0.189453L12.1494 0.191657Z"
      fill="currentColor"
    />
  </symbol>

  <symbol
    id="mastercard"
    viewBox="0 0 22 14"
  >
    <path
      d="M10.7852 1.40348C11.5792 2.01701 12.2211 2.8003 12.6622 3.69408C13.1032 4.58786 13.332 5.56869 13.3311 6.56235C13.3317 7.55568 13.1028 8.53613 12.6617 9.42955C12.2207 10.323 11.579 11.106 10.7852 11.7193C9.99132 11.1059 9.34956 10.3227 8.90849 9.42912C8.46743 8.53552 8.23862 7.55487 8.23937 6.56138C8.23862 5.56789 8.46743 4.58725 8.90849 3.69365C9.34956 2.80005 9.99132 2.01691 10.7852 1.40348ZM9.93202 0.84164C9.09153 1.54787 8.41685 2.42533 7.95461 3.41338C7.49236 4.40142 7.25358 5.47649 7.25477 6.56428C7.25362 7.65159 7.49224 8.72619 7.95413 9.71387C8.41602 10.7016 9.09018 11.5788 9.93006 12.285C8.91544 12.8457 7.7694 13.1352 6.60589 13.1247C5.44237 13.1143 4.30189 12.8043 3.29782 12.2255C2.29375 11.6467 1.46105 10.8193 0.882501 9.8255C0.303954 8.83174 -0.000294261 7.70622 2.13557e-07 6.56084C0.000294688 5.41545 0.305122 4.29009 0.88418 3.29662C1.46324 2.30314 2.29636 1.47615 3.30073 0.897859C4.3051 0.319565 5.44574 0.010106 6.60926 0.000243358C7.77278 -0.00961932 8.91769 0.280458 9.93202 0.84164ZM11.6404 12.285C12.4802 11.5788 13.1544 10.7016 13.6163 9.71387C14.0782 8.72619 14.3168 7.65159 14.3157 6.56428C14.3169 5.47649 14.0781 4.40142 13.6158 3.41338C13.1536 2.42533 12.4789 1.54787 11.6384 0.84164C12.6527 0.280458 13.7986 -0.00961932 14.9622 0.000243358C16.1257 0.010106 17.2663 0.319565 18.2707 0.897859C19.2751 1.47615 20.1082 2.30314 20.6872 3.29662C21.2663 4.29009 21.5711 5.41545 21.5714 6.56084C21.5717 7.70622 21.2675 8.83174 20.6889 9.8255C20.1104 10.8193 19.2777 11.6467 18.2736 12.2255C17.2695 12.8043 16.129 13.1143 14.9655 13.1247C13.802 13.1352 12.656 12.8457 11.6413 12.285H11.6404Z"
      fill="currentColor"
    />
  </symbol>

  <symbol
    id="mir"
    viewBox="0 0 32 10"
  >
    <path
      d="M23.0861 4.15332V9.18757H25.8459V6.20431H28.9737C30.2892 6.19499 31.4069 5.34196 31.8301 4.15332H23.0861Z"
      fill="currentColor"
    />
    <path
      d="M22.7181 0.00463867C22.8791 2.06029 24.8017 3.6871 27.1476 3.6871C27.1568 3.6871 31.945 3.6871 31.945 3.6871C31.9818 3.50064 32.0002 3.30487 32.0002 3.10443C32.0002 1.39838 30.6433 0.0186227 28.9645 0.00463867H22.7181Z"
      fill="currentColor"
    />
    <path
      d="M18.6332 3.63582C18.6654 3.57989 18.716 3.54726 18.7804 3.54726C18.8724 3.54726 18.9414 3.62184 18.946 3.7104V9.14086H21.7058V0.00463867H18.946C18.5964 0.0186227 18.2009 0.274996 18.0537 0.596629L15.8596 5.36984C15.855 5.38849 15.8458 5.40713 15.8366 5.42578C15.8044 5.47239 15.7492 5.50502 15.6848 5.50502C15.5836 5.50502 15.5008 5.42111 15.5008 5.31856V0.00463867H12.741V9.14086H15.5008C15.8458 9.12222 16.2322 8.86584 16.3794 8.54887L18.6332 3.64981C18.6286 3.64514 18.6332 3.64048 18.6332 3.63582Z"
      fill="currentColor"
    />
    <path
      d="M8.33003 3.79433L6.71554 9.14088H4.72848L3.11859 3.78967C3.10479 3.70576 3.03119 3.64051 2.9392 3.64051C2.838 3.64051 2.75981 3.72441 2.75981 3.8223V9.13622H0V0H2.36884H3.07259C3.57855 0 4.11212 0.400875 4.25931 0.890316L5.60242 5.34189C5.67141 5.56564 5.7772 5.56098 5.8462 5.34189L7.18931 0.890316C7.3365 0.396214 7.87006 0 8.37602 0H9.07978H11.4486V9.13622H8.6888V3.8223C8.6888 3.8223 8.6888 3.8223 8.6888 3.81764C8.6888 3.71509 8.60601 3.63584 8.50941 3.63584C8.41742 3.64051 8.34383 3.70576 8.33003 3.79433Z"
      fill="currentColor"
    />
  </symbol>
</svg>
