<svg xmlns="http://www.w3.org/2000/svg">
  <symbol
    id="cross"
    viewBox="0 0 8 8"
  >
    <path
      d="M5.87654 6.93718C6.16943 7.23008 6.64431 7.23008 6.9372 6.93718C7.23009 6.64429 7.23009 6.16942 6.9372 5.87652L4.63916 3.57849L6.93718 1.28046C7.23008 0.987568 7.23008 0.512695 6.93718 0.219801C6.64429 -0.0730918 6.16942 -0.0730922 5.87652 0.219801L3.5785 2.51783L1.28035 0.21967C0.987451 -0.0732236 0.512578 -0.0732232 0.219685 0.21967C-0.0732084 0.512563 -0.0732088 0.987437 0.219685 1.28033L2.51784 3.57849L0.21967 5.87666C-0.0732233 6.16955 -0.0732233 6.64442 0.21967 6.93732C0.512563 7.23021 0.987437 7.23021 1.28033 6.93732L3.5785 4.63915L5.87654 6.93718Z"
      fill="currentColor"
    />
  </symbol>

  <symbol
    id="account"
    viewBox="0 0 16 20"
  >
    <path
      fill-rule="evenodd"
      clip-rule="evenodd"
      d="M7.85 1.7C6.1103 1.7 4.7 3.1103 4.7 4.85C4.7 6.5897 6.1103 8 7.85 8C9.5897 8 11 6.5897 11 4.85C11 3.1103 9.5897 1.7 7.85 1.7ZM3 4.85C3 2.17142 5.17142 0 7.85 0C10.5286 0 12.7 2.17142 12.7 4.85C12.7 7.52858 10.5286 9.7 7.85 9.7C5.17142 9.7 3 7.52858 3 4.85ZM3.28038 13.6354C2.10399 14.2236 1.7 14.8789 1.7 15.35C1.7 15.8211 2.10399 16.4764 3.28038 17.0646C4.40593 17.6274 6.02035 18 7.85 18C9.67965 18 11.2941 17.6274 12.4196 17.0646C13.596 16.4764 14 15.8211 14 15.35C14 14.8789 13.596 14.2236 12.4196 13.6354C11.2941 13.0726 9.67965 12.7 7.85 12.7C6.02035 12.7 4.40593 13.0726 3.28038 13.6354ZM2.52012 12.1149C3.92807 11.4109 5.81366 11 7.85 11C9.88634 11 11.7719 11.4109 13.1799 12.1149C14.537 12.7934 15.7 13.8881 15.7 15.35C15.7 16.8119 14.537 17.9066 13.1799 18.5851C11.7719 19.2891 9.88634 19.7 7.85 19.7C5.81366 19.7 3.92807 19.2891 2.52012 18.5851C1.16301 17.9066 0 16.8119 0 15.35C0 13.8881 1.16301 12.7934 2.52012 12.1149Z"
      fill="currentColor"
    />
  </symbol>

  <symbol
    id="cart"
    viewBox="0 0 18 18"
  >
    <path
      d="M17.0343 3.05767C16.8234 2.80451 16.5593 2.6009 16.2607 2.4613C15.9622 2.3217 15.6367 2.24954 15.3071 2.24994H3.18142L3.14992 1.9867C3.08546 1.43953 2.82247 0.935026 2.41081 0.568844C1.99915 0.202662 1.46743 0.000256339 0.916477 0L0.749981 0C0.551074 0 0.360313 0.0790157 0.219664 0.219664C0.0790157 0.360313 0 0.551074 0 0.749981C0 0.948889 0.0790157 1.13965 0.219664 1.2803C0.360313 1.42095 0.551074 1.49996 0.749981 1.49996H0.916477C1.10017 1.49999 1.27747 1.56743 1.41474 1.68949C1.55202 1.81156 1.63972 1.97976 1.66121 2.1622L2.69318 10.937C2.80032 11.8495 3.23878 12.691 3.92533 13.3017C4.61189 13.9123 5.49875 14.2497 6.41759 14.2496H14.2496C14.4485 14.2496 14.6393 14.1706 14.78 14.03C14.9206 13.8893 14.9996 13.6986 14.9996 13.4997C14.9996 13.3008 14.9206 13.11 14.78 12.9693C14.6393 12.8287 14.4485 12.7497 14.2496 12.7497H6.41759C5.95339 12.7484 5.50096 12.6035 5.12232 12.335C4.74368 12.0664 4.45737 11.6874 4.30264 11.2497H13.2424C14.1216 11.2498 14.9729 10.9409 15.6475 10.3771C16.3221 9.81324 16.7771 9.0303 16.9331 8.16504L17.5218 4.89963C17.5806 4.57564 17.5674 4.24269 17.4831 3.92438C17.3989 3.60607 17.2457 3.31017 17.0343 3.05767ZM16.0496 4.63338L15.4601 7.8988C15.3665 8.41854 15.093 8.88877 14.6875 9.22717C14.2821 9.56556 13.7705 9.75056 13.2424 9.74975H4.06415L3.35842 3.74991H15.3071C15.4173 3.74925 15.5263 3.77287 15.6263 3.8191C15.7263 3.86532 15.8149 3.93301 15.8857 4.01735C15.9566 4.1017 16.0081 4.20062 16.0364 4.30709C16.0647 4.41357 16.0692 4.52497 16.0496 4.63338Z"
      fill="currentColor"
    />
    <path
      d="M5.24996 18C6.07836 18 6.74992 17.3284 6.74992 16.5C6.74992 15.6716 6.07836 15.0001 5.24996 15.0001C4.42155 15.0001 3.75 15.6716 3.75 16.5C3.75 17.3284 4.42155 18 5.24996 18Z"
      fill="currentColor"
    />
    <path
      d="M12.7497 18C13.5781 18 14.2496 17.3284 14.2496 16.5C14.2496 15.6716 13.5781 15.0001 12.7497 15.0001C11.9213 15.0001 11.2497 15.6716 11.2497 16.5C11.2497 17.3284 11.9213 18 12.7497 18Z"
      fill="currentColor"
    />
  </symbol>

  <symbol
    id="seafood"
    viewBox="0 0 16 16"
  >
    <path
      d="M7.3282 3.51176C5.48673 3.65019 3.70986 4.2505 2.16175 5.25723C2.36418 4.45056 2.79292 3.71854 3.39747 3.14739C4.00203 2.57624 4.75721 2.18975 5.57407 2.03344C5.79022 1.98996 6.0134 1.9958 6.22698 2.05054C6.44056 2.10527 6.63904 2.20749 6.80764 2.34958C6.97624 2.49167 7.1106 2.66996 7.20073 2.87118C7.29086 3.0724 7.33443 3.29136 7.3282 3.51176ZM15.7584 3.49644C15.5164 3.16536 15.2095 2.88709 14.8563 2.67862C14.5032 2.47015 14.1113 2.33585 13.7045 2.28394C13.6526 1.87715 13.5183 1.48522 13.3098 1.13208C13.1013 0.77894 12.8231 0.472003 12.492 0.230013C12.3222 0.10224 12.1202 0.0242604 11.9086 0.00480675C11.697 -0.0146469 11.4841 0.0251938 11.2939 0.119867C11.1036 0.21454 10.9435 0.360307 10.8314 0.540843C10.7193 0.721379 10.6597 0.929554 10.6592 1.14205V4.66297C5.65135 4.66297 2.79398 5.62031 1.30767 8.12326C2.88488 8.53525 4.32366 9.36049 5.47563 10.5139C6.62761 11.6673 7.45109 13.107 7.86117 14.6847C10.3668 13.1991 11.3255 10.3411 11.3255 5.32918L14.8464 5.32918C15.0589 5.32871 15.267 5.2691 15.4476 5.15702C15.6281 5.04493 15.7739 4.8848 15.8686 4.69455C15.9632 4.50431 16.0031 4.29146 15.9836 4.07985C15.9642 3.86824 15.8862 3.66623 15.7584 3.49644ZM12.7911 8.66022H12.4747C12.3742 9.56291 12.1929 10.4548 11.933 11.3251H12.4753C14.1322 11.3764 14.6645 8.74283 12.7911 8.66022ZM6.62934 15.263C5.03044 15.7214 2.27434 16.6907 0.78003 15.2084C0.511679 14.9408 0.303742 14.6189 0.17021 14.2643C0.0366791 13.9097 -0.0193493 13.5306 0.00589515 13.1525C0.0676905 11.8593 0.310097 10.5811 0.726067 9.35508C2.16831 9.68018 3.48867 10.4079 4.53367 11.4538C5.57867 12.4996 6.30538 13.8205 6.62934 15.263ZM3.33094 13.3237C3.33094 13.147 3.26075 12.9775 3.13582 12.8526C3.01088 12.7277 2.84142 12.6575 2.66474 12.6575C2.48805 12.6575 2.31859 12.7277 2.19365 12.8526C2.06872 12.9775 1.99853 13.147 1.99853 13.3237C1.99853 13.5004 2.06872 13.6698 2.19365 13.7948C2.31859 13.9197 2.48805 13.9899 2.66474 13.9899C2.84142 13.9899 3.01088 13.9197 3.13582 13.7948C3.26075 13.6698 3.33094 13.5004 3.33094 13.3237Z"
      fill="currentColor"
    />
  </symbol>

  <symbol
    id="vegetarian"
    viewBox="0 0 16 16"
  >
    <path
      d="M16 1C16 4.55 13.3562 7.48438 9.93125 7.9375C9.70937 6.26875 8.975 4.7625 7.89062 3.58437C9.0875 1.44687 11.375 0 14 0H15C15.5531 0 16 0.446875 16 1ZM0 3C0 2.44688 0.446875 2 1 2H2C5.86562 2 9 5.13438 9 9V10V15C9 15.5531 8.55313 16 8 16C7.44688 16 7 15.5531 7 15V10C3.13438 10 0 6.86562 0 3Z"
      fill="currentColor"
    />
  </symbol>

  <symbol
    id="fire"
    viewBox="0 0 13 16"
  >
    <path
      d="M7.7805 0.100171C7.77806 0.0239604 7.69497 -0.0254982 7.62967 0.0138634C4.58528 1.84883 4.62208 6.40362 4.65868 7.28069C4.66164 7.35168 4.594 7.40141 4.53002 7.37051C4.16249 7.193 3.17625 6.55923 3.11418 4.84931C3.11141 4.77299 3.02906 4.72431 2.96348 4.76345C1.18898 5.82271 0 7.76973 0 9.92812C0 13.2418 2.78578 15.9281 6.22222 15.9281C9.65866 15.9281 12.4444 13.2418 12.4444 9.92812C12.4444 5.12163 7.90798 4.08199 7.7805 0.100171Z"
      fill="currentColor"
    />
  </symbol>

  <symbol
    id="chief"
    viewBox="0 0 16 12"
  >
    <path
      d="M9 2.07937V1.5H9.5C9.77625 1.5 10 1.27625 10 1V0.5C10 0.22375 9.77625 0 9.5 0H6.5C6.22375 0 6 0.22375 6 0.5V1C6 1.27625 6.22375 1.5 6.5 1.5H7V2.07937C3.60906 2.56594 1 5.47437 1 9H15C15 5.47437 12.3909 2.56594 9 2.07937ZM15.5 10H0.5C0.22375 10 0 10.2238 0 10.5V11.5C0 11.7762 0.22375 12 0.5 12H15.5C15.7762 12 16 11.7762 16 11.5V10.5C16 10.2238 15.7762 10 15.5 10Z"
      fill="currentColor"
    />
  </symbol>

  <symbol
    id="beef"
    viewBox="0 0 16 16"
  >
    <path
      d="M12.6493 2C13.0905 1.42641 13.3309 0.723646 13.3333 0H12C12 0.530433 11.7893 1.03914 11.4142 1.41421C11.0391 1.78929 10.5304 2 10 2H6C5.46957 2 4.96086 1.78929 4.58579 1.41421C4.21071 1.03914 4 0.530433 4 0L2.66667 0C2.66912 0.723646 2.90946 1.42641 3.35067 2H0V2.66667C0.0714002 3.63577 0.46874 4.55217 1.12733 5.26667C2.06766 4.36566 3.05931 3.5198 4.09733 2.73333C4.54584 3.04262 5.0639 3.23614 5.60533 3.29667C5.60533 3.29667 3.718 4.718 3.02533 5.33333H4C4.88373 5.33439 5.73096 5.68592 6.35585 6.31081C6.98075 6.93571 7.33227 7.78294 7.33333 8.66667V12H6V8.66667C5.99804 8.43148 5.95424 8.19851 5.87067 7.97867C5.70862 8.01222 5.54077 8.00503 5.38218 7.95775C5.22359 7.91046 5.07922 7.82456 4.962 7.70774C4.84479 7.59092 4.7584 7.44684 4.71057 7.28841C4.66275 7.12998 4.655 6.96216 4.688 6.8C4.46838 6.71512 4.23542 6.66998 4 6.66667H2.29L4.014 14.1333C4.04678 14.6383 4.2701 15.1119 4.63879 15.4584C5.00748 15.8049 5.49402 15.9985 6 16H10C10.506 15.9985 10.9925 15.8049 11.3612 15.4584C11.7299 15.1119 11.9532 14.6383 11.986 14.1333L13.71 6.66667H12C11.7648 6.6687 11.5319 6.71249 11.312 6.796C11.3456 6.95805 11.3384 7.1259 11.2911 7.28448C11.2438 7.44307 11.1579 7.58745 11.0411 7.70466C10.9243 7.82188 10.7802 7.90827 10.6217 7.95609C10.4633 8.00392 10.2955 8.01167 10.1333 7.97867C10.0484 8.19826 10.0032 8.43124 10 8.66667V12H8.66667V8.66667C8.66773 7.78294 9.01925 6.93571 9.64415 6.31081C10.269 5.68592 11.1163 5.33439 12 5.33333H12.9747C12.282 4.718 10.3947 3.29333 10.3947 3.29333C10.9358 3.23381 11.4538 3.04143 11.9027 2.73333C12.9407 3.5198 13.9323 4.36566 14.8727 5.26667C15.5313 4.55217 15.9286 3.63577 16 2.66667V2H12.6493ZM10 13.3333C10.1768 13.3333 10.3464 13.4036 10.4714 13.5286C10.5964 13.6536 10.6667 13.8232 10.6667 14C10.6667 14.1768 10.5964 14.3464 10.4714 14.4714C10.3464 14.5964 10.1768 14.6667 10 14.6667H6C5.82319 14.6667 5.65362 14.5964 5.5286 14.4714C5.40357 14.3464 5.33333 14.1768 5.33333 14C5.33333 13.8232 5.40357 13.6536 5.5286 13.5286C5.65362 13.4036 5.82319 13.3333 6 13.3333H10Z"
      fill="currentColor"
    />
  </symbol>

  <symbol
    id="sharp"
    viewBox="0 0 16 16"
  >
    <path
      d="M10.3339 8.22218V5.41831L8.68536 4.6614C6.85779 6.83587 6.17463 12.4999 1.75007 12.4999C1.28592 12.4999 0.840787 12.6842 0.512584 13.0124C0.184382 13.3406 0 13.7858 0 14.2499C0 14.7141 0.184382 15.1592 0.512584 15.4874C0.840787 15.8156 1.28592 16 1.75007 16C8.39535 16 13.3334 12.1602 14.85 9.4266L13.6921 8.22218H10.3339ZM14.4306 4.21045C15.4356 2.34037 14.9125 0.82687 14.3325 0.0930895C14.3103 0.0656475 14.2827 0.0431944 14.2513 0.0272037C14.2198 0.0112131 14.1854 0.00204638 14.1502 0.000305197C14.115 -0.00143599 14.0798 0.00428771 14.047 0.0171007C14.0141 0.0299136 13.9844 0.0495262 13.9596 0.0746512L13.244 0.793431C13.2029 0.835175 13.1777 0.889931 13.1726 0.948279C13.1675 1.00663 13.1829 1.06492 13.2162 1.11313C13.4306 1.4369 13.749 2.21005 13.1724 3.37323C12.6091 3.12696 12.0009 2.99971 11.3861 2.99946C10.5111 2.99946 9.69853 3.26635 9.00037 3.70543L11.3339 4.77703V7.22214H14.1181L15.8269 8.99971C15.9288 8.60532 16.0007 8.19874 16.0007 7.77122C16.0013 7.1011 15.862 6.43823 15.5916 5.82506C15.3212 5.2119 14.9258 4.66196 14.4306 4.21045Z"
      fill="currentColor"
    />
  </symbol>

  <symbol
    id="new"
    viewBox="0 0 10 16"
  >
    <path
      d="M2.52029 0.359C2.55076 0.255329 2.614 0.164319 2.70053 0.0996C2.78707 0.0348812 2.89224 -6.31864e-05 3.00029 8.57716e-08H7.00029C7.07948 6.01937e-05 7.15751 0.018926 7.22798 0.0550444C7.29845 0.0911628 7.35933 0.143501 7.40561 0.20775C7.45189 0.271999 7.48225 0.346322 7.4942 0.424601C7.50614 0.502879 7.49931 0.582874 7.47429 0.658L5.69429 6H9.50029C9.59393 5.99994 9.6857 6.02616 9.76515 6.0757C9.84461 6.12523 9.90857 6.19608 9.94973 6.28019C9.99089 6.36429 10.0076 6.45825 9.99799 6.55139C9.98837 6.64453 9.95278 6.73309 9.89529 6.807L2.89529 15.807C2.82358 15.8996 2.72162 15.9642 2.60719 15.9893C2.49277 16.0144 2.37315 15.9986 2.26921 15.9446C2.16527 15.8905 2.08361 15.8017 2.03848 15.6935C1.99336 15.5854 1.98763 15.4649 2.02229 15.353L3.82329 9.5H0.500293C0.422558 9.50005 0.345882 9.48197 0.276356 9.4472C0.206831 9.41243 0.14637 9.36192 0.0997753 9.2997C0.0531808 9.23748 0.0217362 9.16525 0.00793889 9.08875C-0.00585846 9.01225 -0.00162858 8.93358 0.0202928 8.859L2.52029 0.359Z"
      fill="currentColor"
    />
  </symbol>
</svg>
